# xmcd
#
# Track frame offsets:
#	150
#	10810
#	21337
#	35677
#	59802
#
# Disc length: 1254 seconds
#
# Revision: 0
# Processed by: cddbd v1.4PL0 Copyright (c) Steve Scherf et al.
# Submitted via: dBpowerAMP V4.0
#
DISCID=4004e405
DTITLE=Porch Ghouls - Raising a Ruckus
DYEAR=1900
DGENRE=Blues
TTITLE0=Priming the Well
TTITLE1=Bluff City Ruckus
TTITLE2=A Knife to Cut the Cornbread
TTITLE3=Fly in the Coffin
TTITLE4=DATA
EXTD=Got this little sampler coming out of another show.  Thought the band was some kind of SlipKnot type because of the name.  Was pleasantly surprised by the raw, sloppy, electric Blues.  Good stuff.
EXTT0=
EXTT1=
EXTT2=
EXTT3=
EXTT4=
PLAYORDER=
